<?xml version="1.0" encoding="UTF-8"?>
<svg viewBox="0 0 998 998"
 xmlns:dc="http://purl.org/dc/elements/1.1/"
 xmlns:cc="http://creativecommons.org/ns#"
 xmlns:rdf="http://www.w3.org/1999/02/22-rdf-syntax-ns#"
 xmlns:svg="http://www.w3.org/2000/svg"
 xmlns="http://www.w3.org/2000/svg">
 <title>Debcraft logo</title>
 <metadata>
  <rdf:RDF>
  <cc:Work rdf:about="">
  <dc:format>image/svg+xml</dc:format>
  <dc:type rdf:resource="http://purl.org/dc/dcmitype/StillImage" />
  <dc:title>Debcraft</dc:title>
  <dc:date>2024-01-21</dc:date>
  <dc:creator><cc:Agent><dc:title>Otto Kekäläinen</dc:title></cc:Agent></dc:creator>
  <cc:license rdf:resource="https://www.gnu.org/licenses/gpl-3.0.html" />
  <dc:source>https://salsa.debian.org/otto/debcraft</dc:source>
  </cc:Work>
  </rdf:RDF>
 </metadata>
 <defs>
  <style>
    rect {
      fill: #3d3d3d;
    }
    path, polygon {
      fill: #ec008c;
    }
  </style>
  <polygon id="star" points="639 274 581 232 653 232 595 274 617 206"/>
 </defs>
 <rect width="100%" height="100%"></rect>
 <path d="M369.88,660.59S358,660.4,350,660.4s-10.36-.48-12.34-.48-4-.17-9.23-1.31-9.87-2.85-13.27-3.9-12.63-4.16-18.89-6.17-23-7.68-32.83-11.86-24.68-11-37-21-21.38-17.75-36-36.44-22.88-32.49-28.76-45.67-12-32.64-12.89-53c-.28-6.11-1.05-28.77-1.05-45.94s.38-22.76.09-27-.47-11.67-.47-15.76,1.52-27.3,1.52-31.7c0-1.68-2.38-5.41-2.38-6.17s9.28-30.66,12-38,8.44-19,9.78-21.64a19.46,19.46,0,0,0,1.72-4.76s1,3.13,2.37,3.13S176.23,289,178,286a62.12,62.12,0,0,0,4.76-11c1-3.41,2.58-5.95,3.33-8s2.48-3.73,3.32-5.62,1.12-2.46,2.17-2.46,1.13-.67,2.66-5.79,3.63-6.91,4.76-8.92,6.55-6.47,9.39-8.65,7.77-6.55,10.52-8.44,9.07-8,12.32-11.29a36.68,36.68,0,0,0,4.11-4.66,7.19,7.19,0,0,1,.48,2.39c0,1.22.07,2.54,1.7.84a97,97,0,0,1,10-8.54c3.41-2.46,9-7.12,14.15-9.59s11.93-5.49,19.15-8.15,15.84-5.62,20.5-8.08,10.64-4.83,10.64-4.83-4.53,4.56-.65,3.7,15.16-4.85,20-4.85a34.88,34.88,0,0,0,4.57-.28s-4.28,2.55-6.46,3.7a36.56,36.56,0,0,0-4.28,2.75S334.2,178,336.19,178s3,2.74,6.93,2.74a57.13,57.13,0,0,0,9.21-1.05s-3.25,1.53-4.76,1.53-2.1.86-3.7,1-1.61,1.31.76,1.41,8.84.29,11.21.29c5.12,0,5.6-4,10.05-4,2.46,0,12.72,3.71,12.72,3.71l-1.51-5.12s15.95,6.29,21.45,7.13a37.32,37.32,0,0,1,13.29,4.25c5.12,2.56,15.93,8.18,15.93,8.18s4.49.29,5.8-.19,2.09-3.23,4.74-3.23S450,197.58,450,199.85s.46,3.35,1.7,4.09,12.45,8,12.45,8,1.51-.94-.38-2.37a77.94,77.94,0,0,1-6.45-6.65s7.5,4.83,10.63,6.27,11.77,7.29,17.27,11.09,13.08,10.81,18,16.05,15.09,17.55,19.36,28.76,9.59,27.62,9.59,27.62-5.79-10.53-6.55-10.33,3,14,3.71,15.85,0,1.89-.67,2.17-1.34.75-.19,2.37,4.39,11.86,5.61,16.24,4.17,19,4.17,19-2.83-9.35-4.26-15.54A150.67,150.67,0,0,0,528,304c-2.94-7.61-10-17.67-10-17.67s-.78,5.61-2.39,5.61-6.34-6.16-7.86-6.16-.22,2.72,1.5,10,5.62,12.64,5.14,8.27-1.32-7.61.48-4.47,3.87,7.1,3.87,8.44.1,6.28.86,8.08,3.71,12.55,3.14,13.19-1.89-.57-2.85-3.13-2-4.56-2.56-4.56-2.2-.17-.67,4.75,2.82,9.39,4.76,11.39,2.66,1.79,1.93,2.59-.54.81-1.07.14-1.6-.8-1.6,3.87,1.07,15,2.27,15,2.07-3.13,3.8-3.13.67.34-.27,4.4-2.33,4.79-3.33,7.53-3.27,4.26-3.27,9.46a28.27,28.27,0,0,0,1.54,9.2,27.67,27.67,0,0,1-2.27-5.34c-.54-2.19-1.6-2.26-1.6-3.19,0-1.87-.73-1.2-.73.86a14.11,14.11,0,0,1-.4,4c0,.6,1.06-.08,1.06,1.4s.54.86.54,2.33v3.67c0,.53-1.6-1.94-1.6-3.8s.26-3.94-.81-2.73a9.38,9.38,0,0,0-1.53,2.33v8.87c0,3.79-.86,9.6-3.33,13s-4.19,5.19-5.06,6.73-4.95,5.87-5.2,9.33a64,64,0,0,0,0,8.8l-4.87-7.27s-3.72,4.8-5.66,8.07-3.27,5.46-3.27,6.19.07.74,1.07.74,3.73-1.4,3.73,0-5.2,11.53-5.2,10.06c0-.53,2.66-3.66,1.33-3.66s-2.46.66-1.79-.54a52.25,52.25,0,0,1,3.2-4.32,13.36,13.36,0,0,0-5.61,3.39c-2.66,2.67-4.25,4.9-5.67,6.32s-1.62,1.61-3.23,3-4.9,4-6.9,5.78-11.9,8.9-17.38,13-17.08,12.53-29.41,15.27-18,2.89-22,2.89-15.31-.24-38.17-8.22c-11.31-4-14-4.86-14-5.19s.58-.13.58-.43-2.22-1.82-5.81-4.64-13-10.28-15.71-12.33-9.46-7.57-11.44-9.13-10.46-9.79-10.46-9.79l1.72,5.48s-.62-.38-1.93-2.94-4.8-8.7-6.54-12-5.82-10-5.82-18c0-19.43,2.7-34.16,2.7-40.63,0-1.95.56-2.89,2.42-4.58s2.83-3.76,3.63-8.38,2.13-13,4.83-16.13c3.47-4,8.25-6.34,8.93-7.87s6-11.86,7.88-13.72a78.94,78.94,0,0,1,6-5.92c1.86-1.44,3.43-2.21,5.76-3.89s7.49-4.06,11-5.46,17.06-2.59,20.79-2.59h17.9c3.34,0,11.47,1.32,17.27,4.79a74.22,74.22,0,0,1,12,9.14,97.44,97.44,0,0,1,7.24,8c1.35,1.61,4.1,5,4.1,5s-3.89-3.09-7.23-5.88-9.07-7.59-14.06-9.91a58,58,0,0,0-21.12-4.78,49.1,49.1,0,0,0-19.51,3.64c-5.88,2.54-13.75,5.71-21.5,9.9s-13.42,7.29-18,11.64-11.25,14-13.5,21.17-3,10.62-3,13.41v9.36c0,2.41.38,3.05.38,5.59V393c0,1.6.46,1,.63.17s1.27-.13,1.27-.94.89-3.55.89-.42.57,23.91,3,35.84,9.9,25.05,23.14,35.16,29.51,17.17,40.42,17.17c13.84,0,40.51-11.82,40.51-11.82s.22,1.21,1.15,1.21,4-1,8.61-2.54,6.56-1.77,7.59-3.72.34-2.06,1.71-3.43,8.32-7.34,9-7.19-.15,1.66-2.25,3.28-5,3.42-1.62,3.42c5,0,14.73-9.49,21.29-15.51s9.15-8.42,10.82-9.45,2.1-2.59,2.69-4.21,1.47-3.91.63-3.91-2.74.09-2-1.62,3.47-8.32,4.35-8.32a3.51,3.51,0,0,0,2.74-1.32c.59-.88,4.36-.83,4.36-3s2.89-7.64,4.65-11.75,2.45-5.68,2.45-7.1V382l-4.7,11.4s5-15.76,5-24.47c0-4.75-1.47-15.42-1.47-20.26s.39-6.66.39-9.2.15-3.92-.48-3.92-1.13-.34-1.13-1.66-1.42-16.25-1.81-19.53-2.74-17.42-6.27-24.08a126.34,126.34,0,0,0-10.08-16.74c-6.12-8.81-10-13.31-16.93-19.57s-10.23-9-21-14.93a260.51,260.51,0,0,0-24.81-12.38c-4.95-2-16.54-6.51-23-7.69a179.91,179.91,0,0,0-26.86-2.5c-8.37,0-15.27,1.08-18.11,2.06s-3.28,1.47-4,1.47c-1.27,0-.14,1.32-1.17,1.32a22.32,22.32,0,0,0-6,1.42,35,35,0,0,0-5,2.2s-.79-.93,4.6-2.59c4.08-1.26,6.41-1.71,6.41-2.3s-1.18-.49-1.76-.49-7.79.93-14.34,1.71-12.73,2.45-12.73,5-1.12,4.3-8.12,6.8-12.53,3.13-13.41,4a25.08,25.08,0,0,0-2.45,3.33s1.56.09,7.44-2.1c7.49-2.79,8.42-4.21,8.42-3.23S290.4,242,281.74,242c-4.26,0-6.85-.84-8.81-.84s-4,1.18-11.16,7.64a109.45,109.45,0,0,0-9.25,9,2.5,2.5,0,0,0,2,1.08c1.27,0,4.75-3.08,5.78-4.45s3-2.27.24.73c-4.75,5.09-4.06,5.53-4.9,5.53h-4.94c-2.59,0-13.07.44-24.91,12.63s-21.93,22.85-27.55,31.27-5.92,9.69-7.25,11.11a7.22,7.22,0,0,1-1.71,1.57l5.09.39s-3.43,8.37-6.17,14.78-4.89,7.19-7.24,11.45-4.45,9.3-5,18.21-2.1,21.05-2.89,27.31-2.64,16.2-3.37,22.56a107.73,107.73,0,0,0-.89,13.76,28.8,28.8,0,0,0,4.6,15.7c3.77,5.63,4.56,6.61,4.56,7.79s-.54,2.25-.54,5.33-.39,7.05-.39,7.05a8.21,8.21,0,0,1,2.44,4.11,15.89,15.89,0,0,0,2.79,5.29h-3s9.25,28.73,11.5,28.73,3.28-13.22,5.92-13.22c1.42,0,2.64,2.59,4,5.24s4.52,9.54,6.17,13.55c3.77,9.16,5.58,11.21,4.5,11.11s-5-1.51-6.7-4.11-1.91-3.47-1.91-.48,1,2.88,1,4.25,1.62,2.22,3.08,5.48a52,52,0,0,0,5.82,9.25c1.47,2,3,3.09,2.21,4s-1.32.93-1.32,1.56-1.28.59-1.23,1.33a19.75,19.75,0,0,0,5.39,7.43l4.84,3.48a60.67,60.67,0,0,0-6.12-2.45c-.63,0-2.54-.29-1.32,1.81s12.63,16.79,15.81,20.71,7.88,11,7.88,11l2.5-4.16v5.33c0,1,3.91,7.3,4.45,8.22a14.86,14.86,0,0,0,1.52,2.26c.63.78,1.66,1.66,2.3,2.54s1.86,2.45,2.74,3.57.83,2.11,2.54,2.11,2.06-.49,4.12-.49,2-.05,2.49,1.27a16.67,16.67,0,0,0,4.5,6.22c.49.39,1.52,1.95,2.25,2.49a8.32,8.32,0,0,1,2,1.67,12.75,12.75,0,0,0,2.06,1.81s1,.54,1.91,1.08,2.49,1.76,3.62,1.76,3.28-.2,2.4.88-4.31,4.84-3.53,5,12,3.57,12,4.84c0,.73-.78.35-.78,1.72s4.35,2.3,6.21,3.23,10.48,4.55,9.3,3.23-3.57-6-3.42-6.32,5.28,5.59,6.65,6.27,2.25,2.54,3.48,4.16,3.47,4.94,6.75,6.95,7.05,4.94,24.81,10.42c4.4,1.36,8.47.25,12.78,1.08S369.88,660.59,369.88,660.59Z"/>
 <path d="m496 503a18 18 0 0 0 0 26l356 356a18 18 0 0 0 26-26l-356-356a18 18 0 0 0-26 0zm4 21a12 12 0 1 1 16-16l32 32a12 12 0 1 1-16 16zm372 339a12 12 0 0 1-16 16l-32-32a12 12 0 0 1-2-2 18 18 0 0 0 16-16 12 12 0 0 1 2 2z"/>
 <use href="#star" transform="translate(0, 0) scale(1)"/>
 <use href="#star" transform="translate(-190, 350) scale(0.8)"/>
 <use href="#star" transform="translate(30, 230) scale(0.9)"/>
 <use href="#star" transform="translate(-500, 390) scale(1.5)"/>
 <use href="#star" transform="translate(110, 150) scale(1.1)"/>
</svg>
